<?xml version="1.0" encoding="UTF-8"?>
<svg id="Layer_1" data-name="Layer 1" xmlns="http://www.w3.org/2000/svg" version="1.1" viewBox="0 0 47 40">
  <defs>
    <style>
      .cls-1 {
        fill: #ec80f3;
      }

      .cls-1, .cls-2 {
        stroke-width: 0px;
      }

      .cls-2 {
        fill: #fff;
      }
    </style>
  </defs>
  <path class="cls-1" d="M40.4.3H7.5C3.9.3,1,3.2,1,6.8v20.8c0,3.5,2.9,6.4,6.4,6.4h32.9c3.6,0,6.5-2.9,6.5-6.5V6.7c0-3.5-2.9-6.4-6.4-6.4Z"/>
  <path class="cls-2" d="M33.1,13.4c-2.1-5.5-8.9-3-9.5-.3-.9-2.9-7.5-5.1-9.5.3-2.2,6,8.7,11.4,9.5,12.3.8-.7,11.8-6.4,9.5-12.3Z"/>
  <path class="cls-1" d="M8.5,31.7h10.4s-8,7-8,7c-.9.8-2.5.2-2.5-1.1v-5.9s0,0,0,0Z"/>
</svg>