<?xml version="1.0" encoding="UTF-8"?>
<svg id="Layer_1" data-name="Layer 1" xmlns="http://www.w3.org/2000/svg" version="1.1" viewBox="0 0 32 40">
  <defs>
    <style>
      .cls-1 {
        fill: none;
      }

      .cls-1, .cls-2 {
        stroke-width: 0px;
      }

      .cls-2 {
        fill: #ec80f3;
      }
    </style>
  </defs>
  <rect class="cls-1" width="31.5" height="40"/>
  <g>
    <path class="cls-2" d="M15.8,40c7.8,0,14-5.8,14-13s-6.3-13-14-13S1.7,19.9,1.7,27.1s6.3,13,14,13Z"/>
    <path class="cls-2" d="M8.3,2.9C7.5.7,5.1-.5,2.9.2.7,1-.5,3.5.2,5.7l5.4,16c.8,2.3,3.2,3.5,5.4,2.7,2.2-.8,3.4-3.2,2.6-5.5L8.3,2.9Z"/>
    <path class="cls-2" d="M17.8,19c-.8,2.3.4,4.7,2.6,5.5,2.2.8,4.7-.4,5.4-2.7l5.4-16c.8-2.3-.4-4.7-2.6-5.5s-4.7.4-5.4,2.7l-5.4,16Z"/>
  </g>
</svg>